<?xml version="1.0" encoding="iso-8859-1"?>
<!-- Generator: Adobe Illustrator 19.0.0, SVG Export Plug-In . SVG Version: 6.00 Build 0)  -->
<svg version="1.1" id="Capa_1" xmlns="http://www.w3.org/2000/svg" xmlns:xlink="http://www.w3.org/1999/xlink" x="0px" y="0px"
	 viewBox="0 0 469.72 469.72" style="enable-background:new 0 0 469.72 469.72;" xml:space="preserve">
<linearGradient id="SVGID_1_" gradientUnits="userSpaceOnUse" x1="235.8762" y1="482.72" x2="235.8762" y2="-1.61" gradientTransform="matrix(1 0 0 -1 0 471.44)">
	<stop  offset="0" style="stop-color:#00EFD1"/>
	<stop  offset="1" style="stop-color:#00ACEA"/>
</linearGradient>
<path style="fill:url(#SVGID_1_);" d="M429.742,364.72h-32.22c-8.737-0.028-17.232,2.867-24.133,8.225l-48.2,37.695
	c-35.494-43.946-80.667-45.92-82.997-45.92H42.011c-5.703,0.021-10.314,4.653-10.311,10.356c0,57.466,43.75,94.644,111.458,94.644
	h185.436c67.708,0,111.458-37.178,111.458-94.644C440.056,369.373,435.445,364.742,429.742,364.72L429.742,364.72z M328.594,448.72
	H143.158c-41.023,0-84.674-16.914-90.243-63.617l188.952,0.02c0.42,0.013,42.524,1.853,72.879,45.829
	c3.23,4.688,9.648,5.87,14.337,2.641c0.169-0.116,0.334-0.237,0.495-0.364l56.527-44.362c3.24-2.61,7.257-4.069,11.417-4.147h21.316
	C413.269,431.72,369.622,448.72,328.594,448.72z"/>
<g>
	
		<linearGradient id="SVGID_2_" gradientUnits="userSpaceOnUse" x1="372.2972" y1="482.72" x2="372.2972" y2="-1.61" gradientTransform="matrix(1 0 0 -1 0 471.44)">
		<stop  offset="0" style="stop-color:#00EFD1"/>
		<stop  offset="1" style="stop-color:#00ACEA"/>
	</linearGradient>
	<path style="fill:url(#SVGID_2_);" d="M371.922,169.454c14,0,14-20.622,0-20.622C358.922,148.832,358.922,169.454,371.922,169.454z
		"/>
	
		<linearGradient id="SVGID_3_" gradientUnits="userSpaceOnUse" x1="291.5472" y1="482.72" x2="291.5472" y2="-1.61" gradientTransform="matrix(1 0 0 -1 0 471.44)">
		<stop  offset="0" style="stop-color:#00EFD1"/>
		<stop  offset="1" style="stop-color:#00ACEA"/>
	</linearGradient>
	<path style="fill:url(#SVGID_3_);" d="M291.922,84.133c-14,0-14,20.621,0,20.621C304.922,104.754,304.922,84.133,291.922,84.133z"
		/>
	
		<linearGradient id="SVGID_4_" gradientUnits="userSpaceOnUse" x1="210.5472" y1="482.72" x2="210.5472" y2="-1.61" gradientTransform="matrix(1 0 0 -1 0 471.44)">
		<stop  offset="0" style="stop-color:#00EFD1"/>
		<stop  offset="1" style="stop-color:#00ACEA"/>
	</linearGradient>
	<path style="fill:url(#SVGID_4_);" d="M210.922,143.059c-14,0-14,20.621,0,20.621C223.922,163.68,223.922,143.059,210.922,143.059z
		"/>
	
		<linearGradient id="SVGID_5_" gradientUnits="userSpaceOnUse" x1="167.9222" y1="482.72" x2="167.9222" y2="-1.61" gradientTransform="matrix(1 0 0 -1 0 471.44)">
		<stop  offset="0" style="stop-color:#00EFD1"/>
		<stop  offset="1" style="stop-color:#00ACEA"/>
	</linearGradient>
	<path style="fill:url(#SVGID_5_);" d="M167.922,66.811c-13,0-13,20.622,0,20.622S180.922,66.811,167.922,66.811z"/>
	
		<linearGradient id="SVGID_6_" gradientUnits="userSpaceOnUse" x1="85.9222" y1="482.72" x2="85.9222" y2="-1.61" gradientTransform="matrix(1 0 0 -1 0 471.44)">
		<stop  offset="0" style="stop-color:#00EFD1"/>
		<stop  offset="1" style="stop-color:#00ACEA"/>
	</linearGradient>
	<path style="fill:url(#SVGID_6_);" d="M85.922,159.246c-13,0-13,20.621,0,20.621S98.922,159.246,85.922,159.246z"/>
	
		<linearGradient id="SVGID_7_" gradientUnits="userSpaceOnUse" x1="235.8512" y1="482.72" x2="235.8512" y2="-1.61" gradientTransform="matrix(1 0 0 -1 0 471.44)">
		<stop  offset="0" style="stop-color:#00EFD1"/>
		<stop  offset="1" style="stop-color:#00ACEA"/>
	</linearGradient>
	<path style="fill:url(#SVGID_7_);" d="M235.851,0C116.461,0,19.328,97.076,19.328,216.466c0.004,5.668,4.602,10.258,10.27,10.254
		c0.013,0,0.027,0,0.04,0h412.425c5.668,0.027,10.284-4.547,10.311-10.215c0-0.013,0-0.026,0-0.039
		C452.374,97.076,355.241,0,235.851,0L235.851,0z M40.216,205.72c5.384-103,91.076-185.591,195.635-185.591
		S426.102,102.72,431.486,205.72H40.216z"/>
	
		<linearGradient id="SVGID_8_" gradientUnits="userSpaceOnUse" x1="233.6558" y1="482.72" x2="233.6558" y2="-1.61" gradientTransform="matrix(1 0 0 -1 0 471.44)">
		<stop  offset="0" style="stop-color:#00EFD1"/>
		<stop  offset="1" style="stop-color:#00ACEA"/>
	</linearGradient>
	<path style="fill:url(#SVGID_8_);" d="M439.743,295.965c-6.7,0-9.725-2.883-15.4-8.879c-6.127-6.477-14.519-15.35-30.436-15.35
		c-15.889,0-24.266,8.868-30.383,15.345c-5.669,6-8.692,8.884-15.4,8.884s-9.726-2.885-15.395-8.884
		c-6.117-6.477-14.494-15.345-30.383-15.345s-24.266,8.868-30.383,15.345c-5.669,6-8.692,8.884-15.4,8.884s-9.729-2.885-15.4-8.886
		c-6.117-6.475-14.5-15.343-30.383-15.343s-24.266,8.868-30.383,15.345c-5.669,6-8.692,8.884-15.4,8.884s-9.727-2.885-15.4-8.884
		c-6.117-6.477-14.494-15.345-30.383-15.345c-15.861,0-24.226,8.866-30.335,15.338c-5.667,6-8.687,8.891-15.393,8.891
		s-9.727-2.888-15.393-8.891c-6.11-6.472-14.474-15.338-30.335-15.338c-5.694-0.056-10.356,4.515-10.412,10.209
		c-0.056,5.694,4.515,10.356,10.209,10.412c0.068,0.001,0.135,0.001,0.203,0c6.67,0,9.683,2.88,15.337,8.871
		c6.117,6.482,14.492,15.358,30.391,15.358s24.274-8.876,30.391-15.358c5.653-5.991,8.666-8.871,15.337-8.871
		c6.7,0,9.727,2.885,15.4,8.884c6.117,6.476,14.5,15.345,30.384,15.345s24.284-8.866,30.401-15.345c5.669-6,8.692-8.884,15.4-8.884
		s9.727,2.885,15.4,8.884c6.117,6.476,14.5,15.345,30.385,15.345s24.266-8.869,30.383-15.345c5.669-6,8.693-8.884,15.4-8.884
		s9.727,2.885,15.395,8.884c6.117,6.476,14.5,15.345,30.383,15.345s24.267-8.869,30.384-15.345c5.668-6,8.692-8.884,15.395-8.884
		c6.739,0,9.77,2.89,15.456,8.9c6.117,6.469,14.5,15.33,30.376,15.33c5.694-0.056,10.265-4.718,10.209-10.412
		c-0.055-5.615-4.594-10.154-10.209-10.209L439.743,295.965z"/>
	
		<linearGradient id="SVGID_9_" gradientUnits="userSpaceOnUse" x1="235.8512" y1="482.72" x2="235.8512" y2="-1.61" gradientTransform="matrix(1 0 0 -1 0 471.44)">
		<stop  offset="0" style="stop-color:#00EFD1"/>
		<stop  offset="1" style="stop-color:#00ACEA"/>
	</linearGradient>
	<path style="fill:url(#SVGID_9_);" d="M436.908,334.72H34.794c-5.799,0-10.5,4.701-10.5,10.5s4.701,10.5,10.5,10.5h402.114
		c5.799,0,10.5-4.701,10.5-10.5S442.707,334.72,436.908,334.72z"/>
	
		<linearGradient id="SVGID_10_" gradientUnits="userSpaceOnUse" x1="235.8512" y1="482.72" x2="235.8512" y2="-1.61" gradientTransform="matrix(1 0 0 -1 0 471.44)">
		<stop  offset="0" style="stop-color:#00EFD1"/>
		<stop  offset="1" style="stop-color:#00ACEA"/>
	</linearGradient>
	<path style="fill:url(#SVGID_10_);" d="M436.908,257.72c5.799,0,10.5-4.701,10.5-10.5s-4.701-10.5-10.5-10.5H34.794
		c-5.799,0-10.5,4.701-10.5,10.5s4.701,10.5,10.5,10.5H436.908z"/>
</g>
<g>
</g>
<g>
</g>
<g>
</g>
<g>
</g>
<g>
</g>
<g>
</g>
<g>
</g>
<g>
</g>
<g>
</g>
<g>
</g>
<g>
</g>
<g>
</g>
<g>
</g>
<g>
</g>
<g>
</g>
</svg>
