<svg height="496pt" viewBox="0 0 496 496" width="496pt" xmlns="http://www.w3.org/2000/svg" xmlns:xlink="http://www.w3.org/1999/xlink"><linearGradient id="linear0" gradientUnits="userSpaceOnUse" x1="248" x2="248" y1="496" y2="0"><stop offset="0" stop-color="#9f2fff"/><stop offset="1" stop-color="#0bb1d3"/></linearGradient><path d="m80 104c0-13.230469 10.769531-24 24-24s24 10.769531 24 24v4.121094c0 6.414062-2.503906 12.4375-7.03125 16.976562l-32.96875 32.964844v102.882812l48-24v-59.007812l18.902344-18.90625c13.601562-13.597656 21.097656-31.679688 21.097656-50.917969v-4.113281c0-39.695312-32.296875-72-72-72s-72 32.304688-72 72v24h48zm-16 0v8h-16v-8c0-30.878906 25.128906-56 56-56s56 25.121094 56 56v4.121094c0 14.96875-5.832031 29.03125-16.40625 39.597656l-23.59375 23.59375v55.742188l-16 8v-70.367188l28.28125-28.28125c7.550781-7.550781 11.71875-17.597656 11.71875-28.285156v-4.121094c0-22.054688-17.945312-40-40-40s-40 17.945312-40 40zm24 192c0 13.230469 10.769531 24 24 24s24-10.769531 24-24-10.769531-24-24-24-24 10.769531-24 24zm32 0c0 4.414062-3.585938 8-8 8s-8-3.585938-8-8 3.585938-8 8-8 8 3.585938 8 8zm-88 136h160v-96h-160zm16-80h128v64h-128zm419.089844 55.640625-75.089844-21.65625v-16.367187l7.0625-4.714844c10.691406-7.125 18.320312-17.558594 22.152344-29.429688 15.160156-2.503906 26.785156-15.609375 26.785156-31.472656v-56c0-40.191406-27.121094-74.105469-64-84.59375v-94.71875l-68.6875-68.6875h-315.3125v464h224v32h272v-49.929688c0-17.710937-11.886719-33.519531-28.910156-38.429687zm-123.089844-18.953125v-8.726562c4.9375 2.597656 10.382812 4.039062 16 4.039062s11.0625-1.433594 16-4.03125v8.71875l-16 16zm-10.320312 12.304688 15.761718 15.761718-10.679687 14.230469-9.570313-28.695313zm52.640624 0 4.496094 1.296874-9.570312 28.695313-10.679688-14.230469zm21.679688-82.679688c0 13.398438-6.65625 25.839844-17.816406 33.28125l-19.960938 13.308594c-6.09375 4.050781-14.367187 4.050781-20.445312 0l-19.96875-13.308594c-11.152344-7.433594-17.808594-19.882812-17.808594-33.28125v-46.425781c16.984375-.789063 33.398438-5.726563 48-14.4375 14.601562 8.710937 31.015625 13.648437 48 14.4375zm16-.535156v-27.546875c4.761719 2.777343 8 7.882812 8 13.777343 0 5.894532-3.238281 10.992188-8 13.769532zm8-69.777344v28.457031c-2.488281-1.457031-5.160156-2.578125-8-3.320312v-17.136719h-11.160156c-17.28125 0-34.023438-5.0625-48.40625-14.65625l-4.433594-2.960938-4.441406 2.960938c-14.382813 9.59375-31.117188 14.65625-48.40625 14.65625h-11.152344v17.136719c-2.847656.742187-5.519531 1.863281-8 3.320312v-28.457031c0-39.695312 32.296875-72 72-72s72 32.304688 72 72zm-144 56c0-5.886719 3.238281-11 8-13.777344v27.546875c-4.761719-2.769531-8-7.882812-8-13.769531zm-16-48h-64v-64h84.167969c-12.59375 15.222656-20.167969 34.742188-20.167969 56zm64-176v48h-128v-64h96v16zm-16-16v-36.6875l36.6875 36.6875zm-96 382.070312v1.929688h-208v-432h288v32h-112v96h160v-64h16v80.40625c-2.640625-.238281-5.296875-.40625-8-.40625-18.769531 0-36.144531 5.953125-50.441406 16h-117.558594v96h80v32c0 15.863281 11.625 28.96875 26.792969 31.480469 3.832031 11.863281 11.464843 22.304687 22.152343 29.429687l7.054688 4.699219v16.375l-75.089844 21.65625c-17.023437 4.910156-28.910156 20.71875-28.910156 38.429687zm256 33.929688h-41.449219l-6.710937-33.566406-15.6875 3.140625 6.085937 30.425781h-124.476562l6.085937-30.433594-15.6875-3.140625-6.710937 33.574219h-41.449219v-33.929688c0-10.621093 7.136719-20.109374 17.351562-23.054687l56.464844-16.289063 19.429688 58.289063 26.753906-35.679687 26.761719 35.679687 19.429687-58.289063 56.464844 16.289063c10.207031 2.945313 17.34375 12.433594 17.34375 23.054687zm0 0" fill="url(#linear0)"/></svg>