<?xml version="1.0"?>
<svg xmlns="http://www.w3.org/2000/svg" xmlns:xlink="http://www.w3.org/1999/xlink" viewBox="0 0 512 512" width="512" height="512"><defs><linearGradient id="linear-gradient" x1="133.095" y1="364.254" x2="410.905" y2="86.443" gradientUnits="userSpaceOnUse"><stop offset="0" stop-color="#41dfd0"/><stop offset="1" stop-color="#ee83ef"/></linearGradient></defs><g id="gradient"><path d="M495.8,222.228A234.113,234.113,0,0,0,267.512,40H264V24a8,8,0,0,0-16,0V40h-3.512A234.113,234.113,0,0,0,16.2,222.228,8,8,0,0,0,28.8,230.4a105.232,105.232,0,0,1,121.326-3.368l5.436,3.624a8,8,0,0,0,8.016.5l45.433-22.717A104.838,104.838,0,0,1,248,197.717V368h-8a8,8,0,0,0-8,8v64a56,56,0,0,0,112,0v-8a24,24,0,0,0-48,0v8a8,8,0,0,1-16,0V376a8,8,0,0,0-8-8h-8V197.717a104.833,104.833,0,0,1,38.989,10.721l45.433,22.717a8,8,0,0,0,8.016-.5l5.436-3.624A105.234,105.234,0,0,1,483.2,230.4a8,8,0,0,0,12.6-8.172ZM248,384h16v16H248Zm40,80a24.028,24.028,0,0,0,24-24v-8a8,8,0,0,1,16,0v8a40,40,0,0,1-80,0V416h16v24A24.028,24.028,0,0,0,288,464ZM37.148,206.447A218.039,218.039,0,0,1,233.555,56.289l-4.926,4.1A214.368,214.368,0,0,0,172.1,133.67,211.78,211.78,0,0,0,152.5,209.683,121.354,121.354,0,0,0,37.148,206.447ZM256,181.414a121.135,121.135,0,0,0-54.146,12.714l-33.4,16.7a195.891,195.891,0,0,1,18.141-70.374,198.285,198.285,0,0,1,52.277-67.769L256,58.413l17.129,14.273a197.312,197.312,0,0,1,70.43,138.149l-33.414-16.707A121.128,121.128,0,0,0,256,181.414Zm103.517,28.262A213.34,213.34,0,0,0,283.371,60.4l-4.927-4.106A218.036,218.036,0,0,1,474.851,206.447,121.345,121.345,0,0,0,359.517,209.676ZM167.155,292.423a8,8,0,0,0-14.31,0l-14.311,28.62A24.132,24.132,0,0,0,136,331.777v2.334a24,24,0,0,0,48,0v-2.334a24.117,24.117,0,0,0-2.534-10.732ZM168,334.111a8,8,0,1,1-16,0v-2.334a8.041,8.041,0,0,1,.845-3.578L160,313.889l7.155,14.312a8.026,8.026,0,0,1,.845,3.576Zm208-40v-2.334a24.117,24.117,0,0,0-2.534-10.732l-14.311-28.622a8,8,0,0,0-14.31,0l-14.311,28.62A24.132,24.132,0,0,0,328,291.777v2.334a24,24,0,0,0,48,0Zm-16,0a8,8,0,1,1-16,0v-2.334a8.041,8.041,0,0,1,.845-3.578L352,273.889l7.155,14.312a8.026,8.026,0,0,1,.845,3.576Zm39.155,24.2a8,8,0,0,0-14.31,0l-14.311,28.62A24.133,24.133,0,0,0,368,357.666V360a24,24,0,0,0,48,0v-2.334a24.126,24.126,0,0,0-2.534-10.734ZM400,360a8,8,0,0,1-16,0v-2.334a8.031,8.031,0,0,1,.845-3.578L392,339.777l7.155,14.312a8.024,8.024,0,0,1,.845,3.577Z" style="fill:url(#linear-gradient)"/></g></svg>
