<?xml version="1.0"?>
<svg xmlns="http://www.w3.org/2000/svg" xmlns:xlink="http://www.w3.org/1999/xlink" viewBox="0 0 64 64" width="512" height="512"><linearGradient id="a" gradientUnits="userSpaceOnUse" x1="12.367" x2="77.317" y1="83.173" y2="18.222"><stop offset="0" stop-color="#003f8a"/><stop offset=".518" stop-color="#00d7df"/><stop offset="1" stop-color="#006df0"/></linearGradient><linearGradient id="b" x1="11.097" x2="76.047" xlink:href="#a" y1="81.903" y2="16.953"/><linearGradient id="c" x1="3.347" x2="68.297" xlink:href="#a" y1="74.153" y2="9.203"/><linearGradient id="d" x1="-9.903" x2="55.047" xlink:href="#a" y1="60.903" y2="-4.047"/><linearGradient id="e" x1="-2.403" x2="62.547" xlink:href="#a" y1="68.403" y2="3.453"/><linearGradient id="f" x1="-9.153" x2="55.797" xlink:href="#a" y1="61.653" y2="-3.297"/><linearGradient id="g" x1="-3.403" x2="61.547" xlink:href="#a" y1="67.403" y2="2.453"/><linearGradient id="h" x1="-8.903" x2="56.047" xlink:href="#a" y1="61.903" y2="-3.047"/><linearGradient id="i" x1="-3.153" x2="61.797" xlink:href="#a" y1="67.653" y2="2.703"/><linearGradient id="j" x1="-24.133" x2="40.817" xlink:href="#a" y1="46.673" y2="-18.278"/><linearGradient id="k" x1="-25.403" x2="39.547" xlink:href="#a" y1="45.403" y2="-19.547"/><path d="m42 41.9c0 5.177 8.281 15.475 9.226 16.632a1 1 0 0 0 1.548 0c.945-1.157 9.226-11.455 9.226-16.632a10 10 0 0 0 -20 0zm18 0c0 3.43-5.209 10.818-8 14.4-2.791-3.577-8-10.965-8-14.4a8 8 0 0 1 16 0z" fill="url(#a)"/><path d="m46.5 41a5.5 5.5 0 1 0 5.5-5.5 5.507 5.507 0 0 0 -5.5 5.5zm9 0a3.5 3.5 0 1 1 -3.5-3.5 3.5 3.5 0 0 1 3.5 3.5z" fill="url(#b)"/><path d="m52 60a1 1 0 0 0 -1 1v1h-33v-2h10a1 1 0 0 0 1-1v-3a1 1 0 0 0 -1-1h-16v-5h20a1 1 0 0 0 1-1v-6a1 1 0 0 0 -1-1h-28v-4h32a1 1 0 0 0 1-1v-4a1 1 0 0 0 -1-1h-24v-3a1 1 0 0 0 -2 0v4a1 1 0 0 0 1 1h24v2h-32a1 1 0 0 0 -1 1v6a1 1 0 0 0 1 1h28v4h-20a1 1 0 0 0 -1 1v7a1 1 0 0 0 1 1h16v1h-10a1 1 0 0 0 -1 1v4a1 1 0 0 0 1 1h35a1 1 0 0 0 1-1v-2a1 1 0 0 0 -1-1z" fill="url(#c)"/><path d="m36 6h20a1 1 0 0 0 0-2h-20a1 1 0 0 0 0 2z" fill="url(#d)"/><path d="m36 21h20a1 1 0 0 0 0-2h-20a1 1 0 0 0 0 2z" fill="url(#e)"/><path d="m36 11h13a1 1 0 0 0 0-2h-13a1 1 0 0 0 0 2z" fill="url(#f)"/><path d="m56 11a1 1 0 0 0 0-2h-4a1 1 0 0 0 0 2z" fill="url(#g)"/><path d="m36 16h4a1 1 0 0 0 0-2h-4a1 1 0 0 0 0 2z" fill="url(#h)"/><path d="m42 15a1 1 0 0 0 1 1h13a1 1 0 0 0 0-2h-13a1 1 0 0 0 -1 1z" fill="url(#i)"/><path d="m11 26.9a.992.992 0 0 0 .774-.368c.945-1.157 9.226-11.455 9.226-16.632a10 10 0 0 0 -20 0c0 5.177 8.281 15.475 9.226 16.632a.992.992 0 0 0 .774.368zm0-25a8.009 8.009 0 0 1 8 8c0 3.43-5.209 10.818-8 14.4-2.791-3.582-8-10.97-8-14.4a8.009 8.009 0 0 1 8-8z" fill="url(#j)"/><path d="m16.5 9a5.5 5.5 0 1 0 -5.5 5.5 5.507 5.507 0 0 0 5.5-5.5zm-9 0a3.5 3.5 0 1 1 3.5 3.5 3.5 3.5 0 0 1 -3.5-3.5z" fill="url(#k)"/></svg>
